<?xml version="1.0" standalone="no"?>
<!DOCTYPE svg PUBLIC "-//W3C//DTD SVG 20010904//EN"
 "http://www.w3.org/TR/2001/REC-SVG-20010904/DTD/svg10.dtd">
<svg version="1.0" xmlns="http://www.w3.org/2000/svg"
 width="3840.000000pt" height="2160.000000pt" viewBox="0 0 3840.000000 2160.000000"
 preserveAspectRatio="xMidYMid meet">

<g transform="translate(0.000000,2160.000000) scale(0.100000,-0.100000)"
fill="#ffffff" stroke="none">
<path d="M6313 16184 c-290 -42 -560 -129 -802 -260 -85 -46 -179 -107 -501
-327 -91 -62 -291 -198 -445 -301 -154 -104 -327 -222 -385 -261 -58 -40 -204
-138 -325 -220 -121 -82 -281 -190 -355 -240 -175 -119 -420 -284 -695 -470
-255 -172 -420 -304 -595 -477 -304 -298 -513 -585 -690 -943 -136 -274 -211
-525 -240 -800 -7 -68 -10 -564 -8 -1530 4 -1484 4 -1482 44 -1516 25 -20 75
13 175 116 139 143 168 178 181 215 8 25 13 231 18 695 6 534 10 678 23 755
51 301 159 492 312 549 138 53 289 5 434 -137 95 -93 147 -170 217 -316 138
-291 181 -640 128 -1026 -23 -173 -55 -257 -137 -370 -121 -165 -308 -306
-842 -635 -544 -335 -824 -533 -1006 -715 -348 -344 -310 -580 111 -687 97
-24 122 -27 315 -27 172 -1 227 3 303 18 l92 20 65 -71 c248 -271 756 -602
1485 -966 456 -228 1154 -535 1650 -726 74 -29 158 -62 185 -73 158 -66 465
-150 665 -182 490 -78 922 -74 1515 14 180 27 589 121 734 170 31 10 103 32
161 50 105 32 163 61 525 255 33 18 110 58 170 90 61 32 115 61 120 65 6 4 30
18 55 32 107 59 454 252 530 295 518 294 1335 785 1750 1051 52 34 129 83 170
109 468 296 791 808 849 1348 6 54 10 701 11 1625 0 844 3 1648 6 1785 9 348
-15 519 -116 830 -48 145 -167 388 -254 518 -187 277 -432 519 -721 711 -178
119 -265 167 -627 345 -189 93 -523 257 -743 366 -220 109 -573 283 -785 387
-212 104 -601 297 -865 428 -264 131 -511 249 -550 263 -257 94 -453 143 -683
172 -152 19 -498 19 -629 -1z m1347 -5114 c624 -65 1222 -429 1576 -960 398
-596 469 -1304 198 -1980 -227 -567 -700 -1096 -1379 -1542 -298 -195 -482
-290 -758 -389 -496 -177 -1091 -227 -1707 -144 -364 50 -755 148 -1157 289
-69 25 -307 120 -458 184 -212 90 -645 307 -803 404 -34 21 -65 38 -67 38 -10
0 -355 216 -475 298 -186 126 -309 216 -314 228 -3 7 35 19 107 33 98 19 273
62 362 90 250 77 571 192 703 252 35 16 65 29 67 29 18 0 384 180 490 241 254
146 477 327 518 419 11 25 44 101 74 170 572 1303 1410 2117 2383 2314 164 34
453 45 640 26z"/>
<path d="M6815 9983 c-116 -35 -262 -161 -386 -333 -204 -281 -260 -466 -214
-707 29 -153 117 -274 220 -303 113 -32 287 23 440 138 77 58 179 193 241 317
75 152 99 249 99 400 0 106 -4 131 -29 208 -47 145 -118 237 -214 278 -52 22
-89 23 -157 2z"/>
<path d="M21820 10180 c0 -1461 2 -1660 16 -1728 66 -323 232 -511 539 -608
87 -28 97 -29 295 -29 207 0 245 6 353 47 l29 11 -8 131 c-13 245 -18 281 -34
279 -8 -1 -49 -11 -90 -23 -120 -34 -280 -19 -385 37 -62 33 -124 99 -152 161
-54 124 -53 75 -53 1788 l0 1584 -255 0 -255 0 0 -1650z"/>
<path d="M23544 11817 c-3 -8 -3 -756 -1 -1663 3 -1626 4 -1650 24 -1729 82
-319 237 -486 538 -581 87 -28 98 -29 290 -29 199 1 261 9 358 47 l27 11 -6
106 c-6 117 -23 303 -27 307 -1 2 -29 -7 -62 -18 -74 -27 -251 -31 -330 -8
-111 31 -211 115 -251 209 -45 107 -44 69 -44 1762 l0 1599 -255 0 c-204 0
-257 -3 -261 -13z"/>
<path d="M25277 11824 c-4 -4 -7 -902 -7 -1996 l0 -1988 260 0 260 0 0 389 c0
312 3 392 13 403 8 7 70 65 138 128 68 63 160 149 204 190 181 170 228 211
236 208 4 -2 59 -66 121 -143 156 -195 343 -427 463 -575 323 -399 433 -535
455 -566 l25 -33 318 -1 318 0 -44 58 c-25 31 -75 96 -113 144 -38 48 -139
175 -224 284 -197 250 -417 529 -523 664 -106 133 -245 309 -336 425 -39 50
-71 93 -71 96 0 3 78 82 173 174 552 539 1007 988 1007 996 0 5 -133 9 -303 9
l-302 0 -150 -136 c-83 -75 -197 -180 -255 -232 -58 -53 -152 -139 -210 -191
-156 -143 -225 -207 -335 -306 -55 -49 -127 -115 -160 -146 -64 -59 -86 -79
-300 -274 l-140 -127 -5 1273 -5 1274 -251 3 c-138 1 -253 -1 -257 -4z"/>
<path d="M15805 11634 c-474 -55 -852 -265 -1023 -571 -92 -163 -124 -293
-125 -503 0 -323 87 -505 340 -713 129 -105 300 -181 618 -273 105 -31 168
-48 410 -109 418 -106 529 -143 655 -221 182 -112 259 -253 247 -452 -5 -83
-10 -102 -47 -177 -80 -162 -242 -273 -475 -325 -75 -17 -290 -40 -376 -40
-132 0 -369 29 -509 61 -83 20 -314 100 -390 136 -103 49 -229 126 -302 184
-33 27 -65 46 -70 43 -6 -4 -29 -47 -53 -98 -24 -50 -66 -138 -94 -196 l-51
-105 43 -39 c131 -121 402 -258 662 -335 243 -72 471 -104 735 -103 281 0 519
36 719 107 362 129 589 346 694 665 33 100 42 168 41 315 0 167 -20 267 -73
382 -80 171 -280 352 -496 450 -158 72 -423 154 -735 229 -457 109 -623 167
-764 268 -118 84 -176 170 -197 291 -47 272 111 511 406 613 184 64 473 88
701 57 311 -41 531 -115 777 -259 27 -16 52 -25 56 -20 4 5 27 56 50 114 23
58 46 114 51 125 21 48 70 170 70 176 0 3 -33 26 -73 50 -373 226 -918 331
-1422 273z"/>
<path d="M29600 10714 c-372 -29 -648 -132 -896 -335 -244 -199 -429 -522
-474 -828 -6 -41 -13 -78 -16 -82 -13 -21 -4 -388 12 -474 56 -311 183 -557
394 -766 163 -161 338 -268 560 -342 178 -59 267 -71 510 -71 241 0 316 10
503 70 501 161 854 570 953 1104 24 131 24 418 0 550 -61 331 -224 623 -462
828 -203 175 -477 294 -759 330 -95 13 -262 21 -325 16z m264 -465 c319 -60
536 -222 680 -506 79 -158 117 -392 96 -591 -28 -262 -103 -436 -259 -604
-119 -127 -225 -193 -411 -254 -81 -27 -95 -28 -275 -28 -159 -1 -200 2 -255
18 -180 54 -302 122 -416 234 -176 172 -270 380 -292 642 -37 452 157 828 518
1005 70 35 148 60 245 80 78 16 292 18 369 4z"/>
<path d="M33275 10714 c-255 -23 -420 -71 -585 -168 -90 -53 -217 -159 -256
-215 -53 -74 -54 -70 -54 154 l0 205 -247 -2 -248 -3 -3 -1422 -2 -1423 260 0
260 0 0 738 c0 405 5 791 10 857 28 356 176 599 444 728 137 67 210 82 406 81
190 0 246 -12 374 -76 136 -68 250 -201 302 -353 49 -145 47 -102 51 -1067 l4
-908 259 0 259 0 3 828 c4 798 5 830 25 917 69 296 202 473 437 584 129 61
204 76 396 75 191 0 250 -12 374 -77 145 -75 245 -194 303 -359 54 -155 55
-174 60 -1105 l4 -863 255 0 254 0 0 888 c0 884 -3 967 -36 1129 -80 390 -319
669 -679 791 -299 101 -699 88 -1008 -35 -195 -77 -385 -215 -489 -355 l-51
-69 -48 74 c-115 175 -325 328 -546 397 -122 38 -366 65 -488 54z"/>
<path d="M18144 10675 c-3 -8 -4 -391 -1 -852 5 -784 6 -844 25 -938 48 -244
106 -379 226 -529 170 -211 411 -339 733 -386 91 -13 358 -13 443 0 274 43
486 147 663 325 l80 80 -6 -220 c-5 -232 -21 -336 -66 -455 -120 -310 -356
-457 -763 -475 -397 -18 -776 98 -1042 319 -45 38 -49 40 -60 23 -6 -10 -29
-46 -51 -81 -23 -34 -74 -115 -115 -180 l-74 -119 44 -40 c173 -155 475 -283
805 -343 297 -54 570 -56 835 -8 394 72 683 272 838 579 89 177 138 370 162
630 8 94 11 488 8 1405 l-3 1275 -255 0 -255 0 -5 -765 c-5 -691 -7 -772 -23
-835 -55 -212 -122 -333 -256 -457 -138 -127 -313 -194 -540 -205 -220 -10
-375 23 -510 111 -139 89 -233 219 -278 381 -40 144 -43 204 -43 1003 l0 772
-255 0 c-216 0 -257 -2 -261 -15z"/>
</g>
</svg>
